<svg width="594" height="93" viewBox="0 0 594 93" fill="none" xmlns="http://www.w3.org/2000/svg">
<path d="M0 16C0 7.16345 7.16344 0 16 0H77C85.8366 0 93 7.16344 93 16V77C93 85.8366 85.8366 93 77 93H16C7.16345 93 0 85.8366 0 77V16Z" fill="url(#paint0_linear_431_771)"/>
<path d="M28.0086 40.3242L37.195 28.0701C43.133 20.1491 46.1021 16.1886 48.8723 17.0256C51.6422 17.8625 51.6422 22.72 51.6422 32.4351V33.3512C51.6422 36.8552 51.6422 38.6072 52.778 39.7061L52.838 39.7631C53.9981 40.8389 55.8476 40.8389 59.5466 40.8389C66.2033 40.8389 69.5318 40.8389 70.6565 42.8292C70.6751 42.862 70.6931 42.8955 70.7108 42.9289C71.7728 44.9502 69.8456 47.5208 65.9912 52.6619L56.8049 64.9159C50.8667 72.8367 47.8976 76.7974 45.1274 75.9604C42.3575 75.1233 42.3575 70.2658 42.3575 60.5505L42.3578 59.6351C42.3578 56.1308 42.3578 54.3789 41.222 53.2798L41.162 53.223C40.0019 52.1473 38.1524 52.1473 34.4533 52.1473C27.7966 52.1473 24.4684 52.1473 23.3435 50.1567C23.3249 50.1239 23.3067 50.0908 23.2892 50.057C22.2273 48.036 24.1544 45.4654 28.0086 40.3242Z" fill="white"/>
<path d="M148.12 86.8806C144.087 86.8806 140.017 86.7339 135.91 86.4406C131.803 86.2206 128.21 85.7073 125.13 84.9006V10.8706C126.743 10.5773 128.467 10.3206 130.3 10.1006C132.133 9.80729 134.003 9.58729 135.91 9.44063C137.817 9.29396 139.687 9.18396 141.52 9.11062C143.427 9.03729 145.223 9.00062 146.91 9.00062C151.53 9.00062 155.82 9.36729 159.78 10.1006C163.74 10.7606 167.15 11.8973 170.01 13.5106C172.943 15.1239 175.217 17.2506 176.83 19.8906C178.443 22.5306 179.25 25.7939 179.25 29.6806C179.25 33.2739 178.37 36.3539 176.61 38.9206C174.923 41.4873 172.54 43.5406 169.46 45.0806C174.08 46.6206 177.49 48.8939 179.69 51.9006C181.89 54.9073 182.99 58.7206 182.99 63.3406C182.99 71.1873 180.13 77.0906 174.41 81.0506C168.69 84.9373 159.927 86.8806 148.12 86.8806ZM138.77 51.6806V74.8906C140.31 75.0373 141.96 75.1473 143.72 75.2206C145.48 75.2939 147.093 75.3306 148.56 75.3306C151.42 75.3306 154.06 75.1473 156.48 74.7806C158.973 74.4139 161.1 73.7906 162.86 72.9106C164.693 71.9573 166.123 70.7106 167.15 69.1706C168.25 67.6306 168.8 65.6506 168.8 63.2306C168.8 58.9039 167.223 55.8973 164.07 54.2106C160.917 52.5239 156.553 51.6806 150.98 51.6806H138.77ZM138.77 40.7906H148.56C153.84 40.7906 157.983 40.0573 160.99 38.5906C163.997 37.0506 165.5 34.3373 165.5 30.4506C165.5 26.7839 163.923 24.1806 160.77 22.6406C157.69 21.1006 153.657 20.3306 148.67 20.3306C146.543 20.3306 144.637 20.3673 142.95 20.4406C141.337 20.5139 139.943 20.6239 138.77 20.7706V40.7906ZM229.545 40.4606C228.445 40.0939 226.905 39.7273 224.925 39.3606C223.018 38.9206 220.781 38.7006 218.215 38.7006C216.748 38.7006 215.171 38.8473 213.485 39.1406C211.871 39.4339 210.735 39.6906 210.075 39.9106V86.0006H196.765V31.2206C199.331 30.2673 202.521 29.3873 206.335 28.5806C210.221 27.7006 214.511 27.2606 219.205 27.2606C220.085 27.2606 221.111 27.3339 222.285 27.4806C223.458 27.5539 224.631 27.7006 225.805 27.9206C226.978 28.0673 228.115 28.2873 229.215 28.5806C230.315 28.8006 231.195 29.0206 231.855 29.2406L229.545 40.4606ZM261.37 76.6506C265.477 76.6506 268.593 76.4306 270.72 75.9906V61.2506C269.987 61.0306 268.923 60.8106 267.53 60.5906C266.137 60.3706 264.597 60.2606 262.91 60.2606C261.443 60.2606 259.94 60.3706 258.4 60.5906C256.933 60.8106 255.577 61.2139 254.33 61.8006C253.157 62.3873 252.203 63.2306 251.47 64.3306C250.737 65.3573 250.37 66.6773 250.37 68.2906C250.37 71.4439 251.36 73.6439 253.34 74.8906C255.32 76.0639 257.997 76.6506 261.37 76.6506ZM260.27 27.0406C264.67 27.0406 268.373 27.5906 271.38 28.6906C274.387 29.7906 276.77 31.3306 278.53 33.3106C280.363 35.2906 281.647 37.7106 282.38 40.5706C283.187 43.3573 283.59 46.4373 283.59 49.8106V84.6806C281.537 85.1206 278.42 85.6339 274.24 86.2206C270.133 86.8806 265.477 87.2106 260.27 87.2106C256.823 87.2106 253.67 86.8806 250.81 86.2206C247.95 85.5606 245.493 84.4973 243.44 83.0306C241.46 81.5639 239.883 79.6573 238.71 77.3106C237.61 74.9639 237.06 72.0673 237.06 68.6206C237.06 65.3206 237.683 62.5339 238.93 60.2606C240.25 57.9873 242.01 56.1539 244.21 54.7606C246.41 53.2939 248.94 52.2673 251.8 51.6806C254.733 51.0206 257.777 50.6906 260.93 50.6906C262.397 50.6906 263.937 50.8006 265.55 51.0206C267.163 51.1673 268.887 51.4606 270.72 51.9006V49.7006C270.72 48.1606 270.537 46.6939 270.17 45.3006C269.803 43.9073 269.143 42.6973 268.19 41.6706C267.31 40.5706 266.1 39.7273 264.56 39.1406C263.093 38.5539 261.223 38.2606 258.95 38.2606C255.87 38.2606 253.047 38.4806 250.48 38.9206C247.913 39.3606 245.823 39.8739 244.21 40.4606L242.56 29.6806C244.247 29.0939 246.703 28.5073 249.93 27.9206C253.157 27.3339 256.603 27.0406 260.27 27.0406ZM313.31 86.0006H300V28.4706H313.31V86.0006ZM314.74 11.6406C314.74 14.1339 313.933 16.1139 312.32 17.5806C310.707 19.0473 308.8 19.7806 306.6 19.7806C304.327 19.7806 302.383 19.0473 300.77 17.5806C299.157 16.1139 298.35 14.1339 298.35 11.6406C298.35 9.07396 299.157 7.05729 300.77 5.59063C302.383 4.12396 304.327 3.39062 306.6 3.39062C308.8 3.39062 310.707 4.12396 312.32 5.59063C313.933 7.05729 314.74 9.07396 314.74 11.6406ZM330.29 30.3406C332.857 29.6073 336.194 28.9106 340.3 28.2506C344.407 27.5906 348.954 27.2606 353.94 27.2606C358.634 27.2606 362.557 27.9206 365.71 29.2406C368.864 30.4873 371.357 32.2839 373.19 34.6306C375.097 36.9039 376.417 39.6906 377.15 42.9906C377.957 46.2173 378.36 49.7739 378.36 53.6606V86.0006H365.05V55.7506C365.05 52.6706 364.83 50.0673 364.39 47.9406C364.024 45.7406 363.364 43.9806 362.41 42.6606C361.53 41.2673 360.284 40.2773 358.67 39.6906C357.13 39.0306 355.224 38.7006 352.95 38.7006C351.264 38.7006 349.504 38.8106 347.67 39.0306C345.837 39.2506 344.48 39.4339 343.6 39.5806V86.0006H330.29V30.3406ZM432.806 57.0706C432.806 51.4239 431.669 46.9506 429.396 43.6506C427.196 40.3506 423.676 38.7006 418.836 38.7006C416.636 38.7006 414.546 39.0306 412.566 39.6906C410.659 40.3506 409.119 41.0839 407.946 41.8906V75.0006C408.899 75.2206 410.109 75.4406 411.576 75.6606C413.116 75.8073 414.949 75.8806 417.076 75.8806C421.989 75.8806 425.839 74.2306 428.626 70.9306C431.413 67.5573 432.806 62.9373 432.806 57.0706ZM446.446 57.2906C446.446 61.9106 445.749 66.0906 444.356 69.8306C443.036 73.4973 441.093 76.6506 438.526 79.2906C436.033 81.9306 432.989 83.9473 429.396 85.3406C425.803 86.7339 421.733 87.4306 417.186 87.4306C412.786 87.4306 408.569 87.1006 404.536 86.4406C400.576 85.7806 397.276 85.0473 394.636 84.2406V2.84063L407.946 0.640625V30.4506C409.486 29.6439 411.356 28.9106 413.556 28.2506C415.829 27.5906 418.323 27.2606 421.036 27.2606C425.069 27.2606 428.663 27.9939 431.816 29.4606C435.043 30.8539 437.719 32.8706 439.846 35.5106C441.973 38.1506 443.586 41.3406 444.686 45.0806C445.859 48.7473 446.446 52.8173 446.446 57.2906ZM512.193 57.1806C512.193 61.7273 511.533 65.8706 510.213 69.6106C508.893 73.3506 507.023 76.5406 504.603 79.1806C502.183 81.8206 499.25 83.8739 495.803 85.3406C492.43 86.8073 488.69 87.5406 484.583 87.5406C480.477 87.5406 476.737 86.8073 473.363 85.3406C469.99 83.8739 467.093 81.8206 464.673 79.1806C462.253 76.5406 460.347 73.3506 458.953 69.6106C457.633 65.8706 456.973 61.7273 456.973 57.1806C456.973 52.6339 457.633 48.5273 458.953 44.8606C460.347 41.1206 462.253 37.9306 464.673 35.2906C467.167 32.6506 470.1 30.6339 473.473 29.2406C476.847 27.7739 480.55 27.0406 484.583 27.0406C488.617 27.0406 492.32 27.7739 495.693 29.2406C499.14 30.6339 502.073 32.6506 504.493 35.2906C506.913 37.9306 508.783 41.1206 510.103 44.8606C511.497 48.5273 512.193 52.6339 512.193 57.1806ZM498.553 57.1806C498.553 51.4606 497.307 46.9506 494.813 43.6506C492.393 40.2773 488.983 38.5906 484.583 38.5906C480.183 38.5906 476.737 40.2773 474.243 43.6506C471.823 46.9506 470.613 51.4606 470.613 57.1806C470.613 62.9739 471.823 67.5573 474.243 70.9306C476.737 74.3039 480.183 75.9906 484.583 75.9906C488.983 75.9906 492.393 74.3039 494.813 70.9306C497.307 67.5573 498.553 62.9739 498.553 57.1806ZM545.926 87.1006C541.966 87.0273 538.666 86.5873 536.026 85.7806C533.459 84.9739 531.406 83.8373 529.866 82.3706C528.326 80.8306 527.226 78.9606 526.566 76.7606C525.979 74.4873 525.686 71.9206 525.686 69.0606V2.84063L538.996 0.640625V66.5306C538.996 68.1439 539.106 69.5006 539.326 70.6006C539.619 71.7006 540.096 72.6539 540.756 73.4606C541.416 74.1939 542.296 74.7806 543.396 75.2206C544.569 75.5873 546.036 75.8806 547.796 76.1006L545.926 87.1006ZM557.902 13.2906L571.212 11.0906V28.4706H591.672V39.5806H571.212V63.0106C571.212 67.6306 571.945 70.9306 573.412 72.9106C574.878 74.8906 577.372 75.8806 580.892 75.8806C583.312 75.8806 585.438 75.6239 587.272 75.1106C589.178 74.5973 590.682 74.1206 591.782 73.6806L593.982 84.2406C592.442 84.9006 590.425 85.5606 587.932 86.2206C585.438 86.9539 582.505 87.3206 579.132 87.3206C575.025 87.3206 571.578 86.7706 568.792 85.6706C566.078 84.5706 563.915 82.9939 562.302 80.9406C560.688 78.8139 559.552 76.2839 558.892 73.3506C558.232 70.3439 557.902 66.9339 557.902 63.1206V13.2906Z" fill="white"/>
<defs>
<linearGradient id="paint0_linear_431_771" x1="1.33339e-05" y1="8.81896" x2="93" y2="93" gradientUnits="userSpaceOnUse">
<stop stop-color="#918EF4"/>
<stop offset="0.495" stop-color="#7DA7ED"/>
<stop offset="1" stop-color="#62C7E4"/>
</linearGradient>
</defs>
</svg>
