<svg width="74" height="74" viewBox="0 0 74 74" fill="none" xmlns="http://www.w3.org/2000/svg">
<path d="M15.417 55.5V67.1118L20.0882 64.3091L34.7711 55.5H49.3337C52.7346 55.5 55.5003 52.7342 55.5003 49.3333V24.6667C55.5003 21.2657 52.7346 18.5 49.3337 18.5H12.3337C8.93274 18.5 6.16699 21.2657 6.16699 24.6667V49.3333C6.16699 52.7342 8.93274 55.5 12.3337 55.5H15.417ZM12.3337 24.6667H49.3337V49.3333H33.0629L21.5837 56.2215V49.3333H12.3337V24.6667Z" fill="url(#paint0_linear_999_1164)"/>
<path d="M61.6667 6.16699H24.6667C21.2657 6.16699 18.5 8.93274 18.5 12.3337H55.5C58.9009 12.3337 61.6667 15.0994 61.6667 18.5003V43.167C65.0676 43.167 67.8333 40.4012 67.8333 37.0003V12.3337C67.8333 8.93274 65.0676 6.16699 61.6667 6.16699Z" fill="url(#paint1_linear_999_1164)"/>
<defs>
<linearGradient id="paint0_linear_999_1164" x1="6.167" y1="23.1097" x2="54.8448" y2="67.8255" gradientUnits="userSpaceOnUse">
<stop stop-color="#918EF4"/>
<stop offset="0.495" stop-color="#7DA7ED"/>
<stop offset="1" stop-color="#62C7E4"/>
</linearGradient>
<linearGradient id="paint1_linear_999_1164" x1="18.5" y1="9.67561" x2="55.0359" y2="53.7706" gradientUnits="userSpaceOnUse">
<stop stop-color="#918EF4"/>
<stop offset="0.495" stop-color="#7DA7ED"/>
<stop offset="1" stop-color="#62C7E4"/>
</linearGradient>
</defs>
</svg>
