<svg width="74" height="74" viewBox="0 0 74 74" fill="none" xmlns="http://www.w3.org/2000/svg">
<path d="M37 43.1667V52.4167M37 43.1667C29.5415 43.1667 23.3201 37.8701 21.8917 30.8333M37 43.1667C44.4586 43.1667 50.6798 37.8701 52.1083 30.8333M37 52.4167C39.8675 52.4167 41.3012 52.4167 42.4775 52.7318C45.6694 53.5871 48.1629 56.0806 49.0182 59.2725C49.3333 60.4487 49.3333 61.8825 49.3333 64.75H24.6667C24.6667 61.8825 24.6667 60.4487 24.9818 59.2725C25.8372 56.0806 28.3305 53.5871 31.5225 52.7318C32.6988 52.4167 34.1325 52.4167 37 52.4167ZM21.8917 30.8333H21.5833H20.8125C18.6635 30.8333 17.589 30.8333 16.6954 30.6556C13.026 29.9257 10.1576 27.0573 9.42772 23.3879C9.25 22.4944 9.25 21.4199 9.25 19.2708C9.25 18.5545 9.25 18.1963 9.30923 17.8985C9.55254 16.6753 10.5087 15.7192 11.7318 15.4759C12.0297 15.4167 12.3878 15.4167 13.1042 15.4167H21.5833M21.8917 30.8333C21.6895 29.8371 21.5833 28.8059 21.5833 27.75V14.0952C21.5833 12.4515 21.5833 11.6296 21.8887 10.9955C22.1917 10.3662 22.6995 9.8584 23.3289 9.55534C23.9629 9.25 24.7848 9.25 26.4286 9.25H47.5715C49.2152 9.25 50.037 9.25 50.6712 9.55534C51.3005 9.8584 51.8083 10.3662 52.1114 10.9955C52.4167 11.6296 52.4167 12.4515 52.4167 14.0952V27.75C52.4167 28.8059 52.3106 29.8371 52.1083 30.8333M52.1083 30.8333H52.4167H53.1875C55.3366 30.8333 56.4111 30.8333 57.3047 30.6556C60.9738 29.9257 63.8423 27.0573 64.5724 23.3879C64.75 22.4944 64.75 21.4199 64.75 19.2708C64.75 18.5545 64.75 18.1963 64.6908 17.8985C64.4475 16.6753 63.4914 15.7192 62.2682 15.4759C61.9704 15.4167 61.6121 15.4167 60.8958 15.4167H52.4167" stroke="url(#paint0_linear_999_1161)" stroke-width="6" stroke-linecap="round" stroke-linejoin="round"/>
<defs>
<linearGradient id="paint0_linear_999_1161" x1="9.25001" y1="14.5129" x2="64.75" y2="64.75" gradientUnits="userSpaceOnUse">
<stop stop-color="#918EF4"/>
<stop offset="0.495" stop-color="#7DA7ED"/>
<stop offset="1" stop-color="#62C7E4"/>
</linearGradient>
</defs>
</svg>
