<svg width="74" height="74" viewBox="0 0 74 74" fill="none" xmlns="http://www.w3.org/2000/svg">
<path d="M24.6667 26.2083C24.6667 24.5055 23.2862 23.125 21.5833 23.125C19.8804 23.125 18.5 24.5055 18.5 26.2083V27.75H16.9583C15.2554 27.75 13.875 29.1304 13.875 30.8333C13.875 32.5363 15.2554 33.9167 16.9583 33.9167H18.5V35.4583C18.5 37.1613 19.8804 38.5417 21.5833 38.5417C23.2862 38.5417 24.6667 37.1613 24.6667 35.4583V33.9167H26.2083C27.9112 33.9167 29.2917 32.5363 29.2917 30.8333C29.2917 29.1304 27.9112 27.75 26.2083 27.75H24.6667V26.2083Z" fill="url(#paint0_linear_999_1153)"/>
<path d="M55.4997 24.6663C55.4997 26.3692 54.1193 27.7497 52.4163 27.7497C50.7134 27.7497 49.333 26.3692 49.333 24.6663C49.333 22.9635 50.7134 21.583 52.4163 21.583C54.1193 21.583 55.4997 22.9635 55.4997 24.6663Z" fill="url(#paint1_linear_999_1153)"/>
<path d="M52.4163 40.0837C54.1193 40.0837 55.4997 38.7033 55.4997 37.0003C55.4997 35.2974 54.1193 33.917 52.4163 33.917C50.7134 33.917 49.333 35.2974 49.333 37.0003C49.333 38.7033 50.7134 40.0837 52.4163 40.0837Z" fill="url(#paint2_linear_999_1153)"/>
<path d="M49.3337 30.8333C49.3337 32.5363 47.9532 33.9167 46.2503 33.9167C44.5474 33.9167 43.167 32.5363 43.167 30.8333C43.167 29.1304 44.5474 27.75 46.2503 27.75C47.9532 27.75 49.3337 29.1304 49.3337 30.8333Z" fill="url(#paint3_linear_999_1153)"/>
<path d="M58.5833 33.9167C60.2863 33.9167 61.6667 32.5363 61.6667 30.8333C61.6667 29.1304 60.2863 27.75 58.5833 27.75C56.8804 27.75 55.5 29.1304 55.5 30.8333C55.5 32.5363 56.8804 33.9167 58.5833 33.9167Z" fill="url(#paint4_linear_999_1153)"/>
<path fill-rule="evenodd" clip-rule="evenodd" d="M36.9996 9.25C31.4122 9.25 24.5502 10.046 19.1712 10.8203C12.1573 11.83 6.44668 17.0106 4.9635 24.0139C4.1335 27.933 3.32012 32.5668 3.13373 36.4462C3.00009 39.2277 2.70666 43.1146 2.39578 46.8429C2.07234 50.7221 3.36495 54.7181 5.73699 57.56C8.15753 60.4602 11.9911 62.415 16.4141 61.1773C19.2462 60.3846 21.5091 58.3943 23.1878 56.433C24.9037 54.4285 26.2693 52.1466 27.2419 50.2901C27.9907 48.8607 29.32 48.0553 30.572 48.0553H43.4271C44.6789 48.0553 46.0084 48.8607 46.7571 50.2901C47.7299 52.1466 49.0955 54.4285 50.8113 56.433C52.4899 58.3943 54.7528 60.3846 57.5848 61.1773C62.0079 62.415 65.8414 60.4602 68.2621 57.56C70.6341 54.7181 71.9266 50.7221 71.6032 46.8429C71.2924 43.1146 70.9988 39.2277 70.8653 36.4462C70.6788 32.5668 69.8654 27.933 69.0354 24.0139C67.5523 17.0106 61.8417 11.83 54.8277 10.8203C49.4488 10.046 42.5869 9.25 36.9996 9.25ZM20.0498 16.9241C25.3675 16.1586 31.8714 15.4167 36.9996 15.4167C42.1278 15.4167 48.6314 16.1586 53.9493 16.9241C58.475 17.5756 62.0704 20.8892 63.0025 25.2916C63.8144 29.1241 64.5436 33.3688 64.7058 36.7422C64.8448 39.6393 65.1464 43.6178 65.4578 47.3554C65.6474 49.6281 64.855 52.0183 63.5276 53.6087C62.2487 55.1411 60.7687 55.6647 59.2467 55.2388C58.1195 54.9231 56.8337 53.9861 55.4962 52.4231C54.1956 50.904 53.0773 49.0654 52.2195 47.4285C50.5795 44.2973 47.3232 41.8886 43.4271 41.8886H30.572C26.6759 41.8886 23.4197 44.2973 21.7794 47.4285C20.9218 49.0654 19.8033 50.904 18.5029 52.4231C17.1652 53.9861 15.8796 54.9231 14.7522 55.2388C13.2304 55.6647 11.7502 55.1411 10.4713 53.6087C9.14398 52.0183 8.35163 49.6281 8.54113 47.3554C8.85276 43.6178 9.15409 39.6393 9.29328 36.7422C9.45537 33.3688 10.1847 29.1241 10.9964 25.2916C11.9287 20.8892 15.524 17.5756 20.0498 16.9241Z" fill="url(#paint5_linear_999_1153)"/>
<defs>
<linearGradient id="paint0_linear_999_1153" x1="13.875" y1="24.5869" x2="29.2917" y2="38.5417" gradientUnits="userSpaceOnUse">
<stop stop-color="#918EF4"/>
<stop offset="0.495" stop-color="#7DA7ED"/>
<stop offset="1" stop-color="#62C7E4"/>
</linearGradient>
<linearGradient id="paint1_linear_999_1153" x1="49.333" y1="22.1678" x2="55.4997" y2="27.7497" gradientUnits="userSpaceOnUse">
<stop stop-color="#918EF4"/>
<stop offset="0.495" stop-color="#7DA7ED"/>
<stop offset="1" stop-color="#62C7E4"/>
</linearGradient>
<linearGradient id="paint2_linear_999_1153" x1="49.333" y1="34.5018" x2="55.4997" y2="40.0837" gradientUnits="userSpaceOnUse">
<stop stop-color="#918EF4"/>
<stop offset="0.495" stop-color="#7DA7ED"/>
<stop offset="1" stop-color="#62C7E4"/>
</linearGradient>
<linearGradient id="paint3_linear_999_1153" x1="43.167" y1="28.3348" x2="49.3337" y2="33.9167" gradientUnits="userSpaceOnUse">
<stop stop-color="#918EF4"/>
<stop offset="0.495" stop-color="#7DA7ED"/>
<stop offset="1" stop-color="#62C7E4"/>
</linearGradient>
<linearGradient id="paint4_linear_999_1153" x1="55.5" y1="28.3348" x2="61.6667" y2="33.9167" gradientUnits="userSpaceOnUse">
<stop stop-color="#918EF4"/>
<stop offset="0.495" stop-color="#7DA7ED"/>
<stop offset="1" stop-color="#62C7E4"/>
</linearGradient>
<linearGradient id="paint5_linear_999_1153" x1="2.34669" y1="14.21" x2="54.0552" y2="76.2275" gradientUnits="userSpaceOnUse">
<stop stop-color="#918EF4"/>
<stop offset="0.495" stop-color="#7DA7ED"/>
<stop offset="1" stop-color="#62C7E4"/>
</linearGradient>
</defs>
</svg>
